<svg xmlns="http://www.w3.org/2000/svg" width="125" height="30" viewBox="0 0 125 30" fill="none"><path d="M38.5558 20.5883H47.3011V17.9542H41.664V8.03223H38.5558V20.5883Z" fill="#030F40"></path><path d="M52.4834 18.8325C51.2365 18.8325 50.5868 17.7438 50.5868 16.1106C50.5868 14.4774 51.2365 13.3711 52.4834 13.3711C53.7302 13.3711 54.3975 14.4774 54.3975 16.1106C54.3975 17.7438 53.7302 18.8325 52.4834 18.8325ZM52.5009 20.8696C55.3985 20.8696 57.2951 18.815 57.2951 16.1106C57.2951 13.4062 55.3985 11.3516 52.5009 11.3516C49.6209 11.3516 47.6892 13.4062 47.6892 16.1106C47.6892 18.815 49.6209 20.8696 52.5009 20.8696Z" fill="#030F40"></path><path d="M62.3108 23.6972C63.6454 23.6972 64.822 23.3986 65.6122 22.6962C66.3322 22.0464 66.8064 21.063 66.8064 19.7108V11.5976H64.0669V12.5635H64.0317C63.5049 11.8084 62.6971 11.3342 61.503 11.3342C59.2727 11.3342 57.7273 13.1957 57.7273 15.8298C57.7273 18.5869 59.6064 20.0972 61.6259 20.0972C62.7147 20.0972 63.3995 19.6581 63.9264 19.0611H63.9966V19.9567C63.9966 21.0454 63.4873 21.6776 62.2756 21.6776C61.3273 21.6776 60.8532 21.2737 60.6951 20.7996H57.9205C58.2015 22.6786 59.8347 23.6972 62.3108 23.6972ZM62.2932 17.9723C61.222 17.9723 60.5195 17.0942 60.5195 15.742C60.5195 14.3723 61.222 13.4942 62.2932 13.4942C63.4873 13.4942 64.1195 14.5128 64.1195 15.7245C64.1195 16.9889 63.54 17.9723 62.2932 17.9723Z" fill="#030F40"></path><path d="M72.4381 18.8325C71.1913 18.8325 70.5415 17.7438 70.5415 16.1106C70.5415 14.4774 71.1913 13.3711 72.4381 13.3711C73.685 13.3711 74.3523 14.4774 74.3523 16.1106C74.3523 17.7438 73.685 18.8325 72.4381 18.8325ZM72.4557 20.8696C75.3533 20.8696 77.2498 18.815 77.2498 16.1106C77.2498 13.4062 75.3533 11.3516 72.4557 11.3516C69.5757 11.3516 67.644 13.4062 67.644 16.1106C67.644 18.815 69.5757 20.8696 72.4557 20.8696Z" fill="#030F40"></path><path d="M78.0865 20.5883H80.949V11.5971H78.0865V20.5883ZM78.0865 10.3503H80.949V8.03223H78.0865V10.3503Z" fill="#030F40"></path><path d="M82.1909 23.5567H85.0534V19.6581H85.0885C85.6505 20.4133 86.4758 20.8698 87.6348 20.8698C89.988 20.8698 91.5509 19.0084 91.5509 16.0933C91.5509 13.3889 90.0934 11.3342 87.7051 11.3342C86.4758 11.3342 85.5978 11.8786 84.9831 12.6864H84.9305V11.5976H82.1909V23.5567ZM86.8973 18.6572C85.668 18.6572 84.9656 17.6562 84.9656 16.1986C84.9656 14.7411 85.5978 13.6347 86.8446 13.6347C88.0739 13.6347 88.6534 14.6533 88.6534 16.1986C88.6534 17.7264 87.9861 18.6572 86.8973 18.6572Z" fill="#030F40"></path><path d="M96.2116 20.8698C98.5647 20.8698 100.303 19.8513 100.303 17.8845C100.303 15.584 98.4418 15.1801 96.8613 14.9167C95.7199 14.7059 94.7013 14.6181 94.7013 13.9859C94.7013 13.424 95.2457 13.1606 95.9482 13.1606C96.7384 13.1606 97.2828 13.4064 97.3882 14.2142H100.022C99.8818 12.4406 98.5121 11.3342 95.9657 11.3342C93.8408 11.3342 92.0848 12.3176 92.0848 14.2142C92.0848 16.3215 93.753 16.743 95.316 17.0064C96.5101 17.2172 97.5989 17.305 97.5989 18.1128C97.5989 18.6923 97.0545 19.0084 96.194 19.0084C95.2457 19.0084 94.6487 18.5693 94.5433 17.6737H91.8389C91.9267 19.6581 93.5774 20.8698 96.2116 20.8698Z" fill="#030F40"></path><path d="M104.191 20.8518C105.437 20.8518 106.228 20.3601 106.877 19.482H106.93V20.5884H109.67V11.5972H106.807V16.6196C106.807 17.6908 106.21 18.4284 105.227 18.4284C104.313 18.4284 103.874 17.884 103.874 16.9006V11.5972H101.03V17.4977C101.03 19.4996 102.118 20.8518 104.191 20.8518Z" fill="#030F40"></path><path d="M110.915 20.5889H113.777V15.5489C113.777 14.4776 114.304 13.7225 115.2 13.7225C116.06 13.7225 116.464 14.2845 116.464 15.2503V20.5889H119.326V15.5489C119.326 14.4776 119.836 13.7225 120.749 13.7225C121.609 13.7225 122.013 14.2845 122.013 15.2503V20.5889H124.876V14.7411C124.876 12.7215 123.857 11.3342 121.82 11.3342C120.661 11.3342 119.695 11.8259 118.993 12.9147H118.958C118.501 11.9489 117.605 11.3342 116.429 11.3342C115.129 11.3342 114.269 11.9489 113.707 12.8796H113.654V11.5976H110.915V20.5889Z" fill="#030F40"></path><path fill-rule="evenodd" clip-rule="evenodd" d="M15.7442 29.3691C23.8264 29.3691 30.3784 22.8172 30.3784 14.735C30.3784 6.65276 23.8264 0.10083 15.7442 0.10083C7.66197 0.10083 1.11005 6.65276 1.11005 14.735C1.11005 22.8172 7.66197 29.3691 15.7442 29.3691ZM20.3096 6.91803C20.5318 6.12867 19.7657 5.6619 19.0662 6.16032L9.30014 13.1176C8.54143 13.6581 8.66077 14.735 9.47941 14.735H12.0511V14.7151H17.0631L12.9792 16.156L11.1789 22.5519C10.9567 23.3413 11.7226 23.8081 12.4223 23.3096L22.1883 16.3524C22.947 15.8119 22.8276 14.735 22.009 14.735H18.1092L20.3096 6.91803Z" fill="#030F40"></path></svg>