<svg xmlns="http://www.w3.org/2000/svg" width="140" height="26" viewBox="0 0 140 26" fill="none"><g clip-path="url(#clip0_612_22480)"><path d="M9.5615 21.4886C6.88424 24.1658 2.34999 24.1552 1.08369 20.587C0.835768 19.8884 0.637545 19.1701 0.491752 18.4371C-0.103516 15.4444 0.201997 12.3426 1.36966 9.52353C2.53732 6.70459 4.51468 4.29516 7.0517 2.59998C9.58875 0.9048 12.5715 -1.30704e-07 15.6227 0C18.674 1.30704e-07 21.6567 0.9048 24.1937 2.59998C26.7307 4.29516 28.7081 6.70459 29.8757 9.52362C31.0434 12.3426 31.3489 15.4444 30.7537 18.4371C30.6079 19.1701 30.4096 19.8884 30.1617 20.587C28.8954 24.1552 24.3611 24.1658 21.6839 21.4886L17.5511 17.3558C17.1563 16.961 17.1971 16.3098 17.306 15.7622C17.3722 15.4293 17.3382 15.0842 17.2083 14.7706C17.0784 14.457 16.8584 14.1889 16.5762 14.0004C16.294 13.8118 15.9622 13.7111 15.6227 13.7111C15.2833 13.7111 14.9515 13.8118 14.6692 14.0004C14.3869 14.1889 14.167 14.457 14.0371 14.7706C13.9072 15.0842 13.8732 15.4293 13.9395 15.7622C14.0484 16.3098 14.0891 16.961 13.6942 17.3558L9.5615 21.4886Z" fill="#030F40"></path><path d="M43.6008 17.7842H47.7476V20.228H40.4351V7.23193H43.6008V17.7842Z" fill="#030F40"></path><path d="M53.405 20.3764C52.393 20.3764 51.4796 20.1604 50.665 19.7284C49.8629 19.2965 49.2272 18.6794 48.7582 17.8772C48.3016 17.0749 48.0733 16.1369 48.0733 15.0631C48.0733 14.0018 48.3077 13.0699 48.7767 12.2677C49.2458 11.4532 49.8875 10.8299 50.7021 10.3979C51.5167 9.96598 52.43 9.75 53.442 9.75C54.454 9.75 55.3674 9.96598 56.1819 10.3979C56.9965 10.8299 57.6382 11.4532 58.1072 12.2677C58.5762 13.0699 58.8107 14.0018 58.8107 15.0631C58.8107 16.1246 58.57 17.0625 58.0887 17.8772C57.6198 18.6794 56.9718 19.2965 56.1448 19.7284C55.3303 20.1604 54.417 20.3764 53.405 20.3764ZM53.405 17.6364C54.0097 17.6364 54.5219 17.4144 54.9416 16.97C55.3735 16.5257 55.5895 15.8901 55.5895 15.0631C55.5895 14.2363 55.3796 13.6007 54.96 13.1564C54.5527 12.712 54.0467 12.4899 53.442 12.4899C52.8249 12.4899 52.3127 12.712 51.9054 13.1564C51.4981 13.5883 51.2945 14.2239 51.2945 15.0631C51.2945 15.8901 51.492 16.5257 51.8869 16.97C52.2942 17.4144 52.8003 17.6364 53.405 17.6364Z" fill="#030F40"></path><path d="M63.8588 9.75C64.587 9.75 65.2226 9.89811 65.7657 10.1943C66.321 10.4905 66.7469 10.8793 67.0431 11.3606V9.89811H70.2087V20.2097C70.2087 21.1601 70.0175 22.0179 69.6348 22.783C69.2646 23.5606 68.6907 24.1777 67.9132 24.6343C67.148 25.091 66.1915 25.3193 65.0437 25.3193C63.5133 25.3193 62.2729 24.9552 61.3226 24.2271C60.3723 23.5112 59.8292 22.5362 59.6934 21.302H62.8221C62.9208 21.6969 63.1554 22.0055 63.5257 22.2277C63.8958 22.4621 64.3525 22.5794 64.8956 22.5794C65.5497 22.5794 66.068 22.3881 66.4507 22.0055C66.8456 21.6352 67.0431 21.0367 67.0431 20.2097V18.7473C66.7345 19.2285 66.3087 19.6235 65.7657 19.932C65.2226 20.2283 64.587 20.3764 63.8588 20.3764C63.0073 20.3764 62.2359 20.1604 61.5447 19.7284C60.8536 19.2841 60.3043 18.6608 59.8971 17.8586C59.5022 17.0441 59.3047 16.1061 59.3047 15.0447C59.3047 13.9832 59.5022 13.0515 59.8971 12.2492C60.3043 11.447 60.8536 10.8299 61.5447 10.3979C62.2359 9.96598 63.0073 9.75 63.8588 9.75ZM67.0431 15.0631C67.0431 14.2733 66.8209 13.65 66.3766 13.1934C65.9446 12.7368 65.4139 12.5084 64.7845 12.5084C64.155 12.5084 63.6182 12.7368 63.1738 13.1934C62.7419 13.6377 62.5259 14.2548 62.5259 15.0447C62.5259 15.8345 62.7419 16.464 63.1738 16.933C63.6182 17.3896 64.155 17.618 64.7845 17.618C65.4139 17.618 65.9446 17.3896 66.3766 16.933C66.8209 16.4763 67.0431 15.8531 67.0431 15.0631Z" fill="#030F40"></path><path d="M76.647 20.3764C75.635 20.3764 74.7217 20.1604 73.9072 19.7284C73.1049 19.2965 72.4693 18.6794 72.0003 17.8772C71.5437 17.0749 71.3153 16.1369 71.3153 15.0631C71.3153 14.0018 71.5498 13.0699 72.0189 12.2677C72.4878 11.4532 73.1296 10.8299 73.9441 10.3979C74.7587 9.96598 75.672 9.75 76.6841 9.75C77.6961 9.75 78.6094 9.96598 79.4239 10.3979C80.2385 10.8299 80.8803 11.4532 81.3493 12.2677C81.8183 13.0699 82.0528 14.0018 82.0528 15.0631C82.0528 16.1246 81.8122 17.0625 81.3308 17.8772C80.8618 18.6794 80.2139 19.2965 79.3869 19.7284C78.5724 20.1604 77.6591 20.3764 76.647 20.3764ZM76.647 17.6364C77.2518 17.6364 77.764 17.4144 78.1836 16.97C78.6156 16.5257 78.8316 15.8901 78.8316 15.0631C78.8316 14.2363 78.6217 13.6007 78.2021 13.1564C77.7948 12.712 77.2888 12.4899 76.6841 12.4899C76.067 12.4899 75.5548 12.712 75.1475 13.1564C74.7402 13.5883 74.5366 14.2239 74.5366 15.0631C74.5366 15.8901 74.7341 16.5257 75.129 16.97C75.5363 17.4144 76.0423 17.6364 76.647 17.6364Z" fill="#030F40"></path><path d="M84.7695 8.8243C84.2141 8.8243 83.7575 8.66385 83.3996 8.34296C83.054 8.00973 82.8812 7.60245 82.8812 7.12112C82.8812 6.62744 83.054 6.22015 83.3996 5.89926C83.7575 5.56603 84.2141 5.39941 84.7695 5.39941C85.3126 5.39941 85.7569 5.56603 86.1024 5.89926C86.4603 6.22015 86.6393 6.62744 86.6393 7.12112C86.6393 7.60245 86.4603 8.00973 86.1024 8.34296C85.7569 8.66385 85.3126 8.8243 84.7695 8.8243ZM86.343 9.89806V20.2282H83.1774V9.89806H86.343Z" fill="#030F40"></path><path d="M91.2456 11.3606C91.554 10.8793 91.9799 10.4905 92.5232 10.1943C93.0665 9.89811 93.7022 9.75 94.4302 9.75C95.2819 9.75 96.0529 9.96598 96.7442 10.3979C97.4354 10.8299 97.9787 11.447 98.3732 12.2492C98.7802 13.0515 98.9846 13.9832 98.9846 15.0447C98.9846 16.1061 98.7802 17.0441 98.3732 17.8586C97.9787 18.6608 97.4354 19.2841 96.7442 19.7284C96.0529 20.1604 95.2819 20.3764 94.4302 20.3764C93.7138 20.3764 93.0791 20.2283 92.5232 19.932C91.9799 19.6358 91.554 19.2533 91.2456 18.7843V25.1527H88.0801V9.89811H91.2456V11.3606ZM95.7633 15.0447C95.7633 14.2548 95.541 13.6377 95.0963 13.1934C94.6642 12.7368 94.128 12.5084 93.4861 12.5084C92.8567 12.5084 92.3197 12.7368 91.875 13.1934C91.4437 13.65 91.2277 14.2733 91.2277 15.0631C91.2277 15.8531 91.4437 16.4763 91.875 16.933C92.3197 17.3896 92.8567 17.618 93.4861 17.618C94.1155 17.618 94.6525 17.3896 95.0963 16.933C95.541 16.464 95.7633 15.8345 95.7633 15.0447Z" fill="#030F40"></path><path d="M104.294 20.3764C103.393 20.3764 102.59 20.2221 101.886 19.9136C101.184 19.605 100.628 19.1854 100.221 18.6546C99.8136 18.1116 99.585 17.5069 99.5357 16.8404H102.665C102.701 17.1983 102.868 17.4883 103.164 17.7105C103.461 17.9326 103.825 18.0437 104.257 18.0437C104.651 18.0437 104.954 17.9697 105.163 17.8216C105.386 17.6612 105.497 17.4575 105.497 17.2107C105.497 16.9144 105.343 16.6985 105.034 16.5627C104.726 16.4146 104.226 16.2542 103.534 16.0814C102.794 15.9086 102.177 15.7296 101.683 15.5445C101.19 15.3471 100.764 15.0447 100.406 14.6374C100.048 14.2178 99.8692 13.6562 99.8692 12.9528C99.8692 12.3603 100.03 11.8235 100.351 11.3421C100.683 10.8485 101.165 10.4596 101.794 10.1758C102.436 9.89192 103.195 9.75 104.071 9.75C105.367 9.75 106.385 10.0709 107.126 10.7126C107.879 11.3545 108.311 12.206 108.422 13.2674H105.497C105.448 12.9095 105.287 12.6257 105.015 12.4158C104.756 12.206 104.411 12.1011 103.979 12.1011C103.609 12.1011 103.325 12.1752 103.127 12.3233C102.93 12.459 102.831 12.6503 102.831 12.8972C102.831 13.1934 102.986 13.4156 103.294 13.5637C103.615 13.7118 104.108 13.8599 104.775 14.0079C105.54 14.2054 106.163 14.4029 106.644 14.6003C107.126 14.7855 107.545 15.094 107.903 15.526C108.273 15.9456 108.465 16.5133 108.478 17.2292C108.478 17.8339 108.305 18.377 107.959 18.8583C107.626 19.3273 107.138 19.6976 106.497 19.9691C105.867 20.2406 105.133 20.3764 104.294 20.3764Z" fill="#030F40"></path><path d="M120.059 9.89795V20.2281H116.893V18.8211C116.572 19.2778 116.134 19.648 115.579 19.9319C115.035 20.2035 114.431 20.3392 113.764 20.3392C112.974 20.3392 112.277 20.1664 111.672 19.8208C111.067 19.4629 110.598 18.9507 110.266 18.2843C109.932 17.6178 109.765 16.8341 109.765 15.9331V9.89795H112.912V15.5073C112.912 16.1985 113.092 16.7353 113.449 17.118C113.807 17.5005 114.289 17.6919 114.894 17.6919C115.511 17.6919 115.998 17.5005 116.356 17.118C116.714 16.7353 116.893 16.1985 116.893 15.5073V9.89795H120.059Z" fill="#030F40"></path><path d="M134.959 9.78687C136.242 9.78687 137.26 10.1756 138.014 10.9532C138.778 11.7307 139.161 12.8106 139.161 14.1929V20.2281H136.014V14.6187C136.014 13.9522 135.835 13.44 135.477 13.0821C135.131 12.7119 134.651 12.5267 134.033 12.5267C133.416 12.5267 132.928 12.7119 132.571 13.0821C132.225 13.44 132.052 13.9522 132.052 14.6187V20.2281H128.905V14.6187C128.905 13.9522 128.726 13.44 128.368 13.0821C128.022 12.7119 127.541 12.5267 126.924 12.5267C126.307 12.5267 125.82 12.7119 125.462 13.0821C125.116 13.44 124.944 13.9522 124.944 14.6187V20.2281H121.778V9.89795H124.944V11.1938C125.265 10.7619 125.684 10.4224 126.202 10.1756C126.721 9.91642 127.307 9.78687 127.961 9.78687C128.739 9.78687 129.43 9.95344 130.034 10.2867C130.651 10.6199 131.133 11.0951 131.479 11.7122C131.836 11.1444 132.324 10.6816 132.941 10.3237C133.558 9.96582 134.231 9.78687 134.959 9.78687Z" fill="#030F40"></path></g><defs><clipPath id="clip0_612_22480"><rect width="138.966" height="26" fill="white" transform="translate(0.195312)"></rect></clipPath></defs></svg>